<?xml version="1.0" encoding="utf-8"?>

<!-- Uploaded to: SVG Repo, www.svgrepo.com, Generator: SVG Repo Mixer Tools -->
<svg fill="currentColor" height="100%" width="100%" version="1.1" id="Icons" xmlns="http://www.w3.org/2000/svg" xmlns:xlink="http://www.w3.org/1999/xlink"
	 viewBox="0 0 32 32" xml:space="preserve">
<polygon points="25,6.6 25,12 30.4,12 "/>
<g>
	<polygon points="13,2.6 13,8 18.4,8 	"/>
	<path d="M17,10h-5c-0.6,0-1-0.4-1-1V2H3C2.4,2,2,2.4,2,3v22c0,0.6,0.4,1,1,1h15c0.6,0,1-0.4,1-1V12C19,10.9,18.1,10,17,10z"/>
</g>
<path d="M29,14h-5c-0.6,0-1-0.4-1-1V6h-2v6v2v11c0,1.7-1.3,3-3,3h-4v1c0,0.6,0.4,1,1,1h15c0.6,0,1-0.4,1-1V16C31,14.9,30.1,14,29,14
	z"/>
</svg>