<?xml version="1.0" encoding="UTF-8"?>
<!-- Uploaded to: SVG Repo, www.svgrepo.com, Generator: SVG Repo Mixer Tools -->
<svg width="800px" height="800px" viewBox="0 0 38 38" version="1.1" xmlns="http://www.w3.org/2000/svg" xmlns:xlink="http://www.w3.org/1999/xlink">
    
    <title>gear</title>
    <desc>Created with Sketch.</desc>
    <g id="icons" stroke="none" stroke-width="1" fill="none" fill-rule="evenodd">
        <g id="ui-gambling-website-lined-icnos-casinoshunter" transform="translate(-2291.000000, -281.000000)" fill="currentColor" fill-rule="nonzero">
            <g id="1" transform="translate(1350.000000, 120.000000)">
                <path d="M962.5,161 C964.156854,161 965.5,162.343146 965.5,163.999937 L965.500061,164.970698 C965.919867,165.124369 966.332687,165.295574 966.737551,165.483787 L967.424621,164.797204 C968.596194,163.625631 970.495689,163.625631 971.667262,164.797204 L975.202796,168.332738 C976.374369,169.504311 976.374369,171.403806 975.203046,172.575128 L974.516213,173.262449 C974.704511,173.667497 974.875786,174.080508 975.029511,174.50051 L976,174.5 C977.656854,174.5 979,175.843146 979,177.5 L979,182.5 C979,184.156854 977.656854,185.5 976.000063,185.5 L975.029302,185.500061 C974.875631,185.919867 974.704425,186.332687 974.516213,186.737551 L975.202796,187.424621 C976.374369,188.596194 976.374369,190.495689 975.202796,191.667262 L971.667262,195.202796 C970.495689,196.374369 968.596194,196.374369 967.424872,195.203046 L966.737551,194.516213 C966.332687,194.704426 965.919867,194.875631 965.500061,195.029302 L965.5,196 C965.5,197.656854 964.156854,199 962.5,199 L957.5,199 C955.843146,199 954.5,197.656854 954.5,195.999474 L954.50051,195.029511 C954.080507,194.875786 953.667497,194.704511 953.262449,194.516213 L952.575379,195.202796 C951.403806,196.374369 949.504311,196.374369 948.332738,195.202796 L944.797204,191.667262 C943.625631,190.495689 943.625631,188.596194 944.796954,187.424872 L945.483787,186.737551 C945.295574,186.332687 945.124369,185.919867 944.970698,185.500061 L944,185.5 C942.343146,185.5 941,184.156854 941,182.5 L941,177.5 C941,175.843146 942.343146,174.5 944.000526,174.5 L944.970489,174.50051 C945.124214,174.080507 945.295489,173.667497 945.483787,173.262449 L944.797204,172.575379 C943.625631,171.403806 943.625631,169.504311 944.797204,168.332738 L948.332738,164.797204 C949.504311,163.625631 951.403806,163.625631 952.575128,164.796954 L953.262449,165.483787 C953.532481,165.358255 953.806052,165.240289 954.082874,165.130045 L954.50051,164.970489 L954.5,164 C954.5,162.343146 955.843146,161 957.5,161 L962.5,161 Z M960,173 C956.134007,173 953,176.134007 953,180 C953,183.865993 956.134007,187 960,187 C963.865993,187 967,183.865993 967,180 C967,176.134007 963.865993,173 960,173 Z" id="gear">

</path>
            </g>
        </g>
    </g>
</svg>